<?xml version="1.0" encoding="utf-8"?>
<!-- Generator: Adobe Illustrator 23.1.1, SVG Export Plug-In . SVG Version: 6.00 Build 0)  -->
<svg version="1.1" id="Layer_1" xmlns="http://www.w3.org/2000/svg" xmlns:xlink="http://www.w3.org/1999/xlink" x="0px" y="0px"
	 viewBox="0 0 740.6 678.5" style="enable-background:new 0 0 740.6 678.5;" xml:space="preserve">
<style type="text/css">
	.st0{opacity:0.41;fill:none;stroke:url(#SVGID_1_);stroke-miterlimit:10;enable-background:new    ;}
	.st1{opacity:0.7;}
	.st2{opacity:0.91;}
	.st3{opacity:0.85;}
	.st4{opacity:0.8;fill:url(#SVGID_2_);enable-background:new    ;}
	.st5{opacity:0.8;fill:url(#SVGID_3_);enable-background:new    ;}
	.st6{opacity:0.48;fill:url(#SVGID_4_);enable-background:new    ;}
	.st7{opacity:0.47;fill:url(#SVGID_5_);enable-background:new    ;}
	.st8{opacity:0.8;fill:url(#SVGID_6_);enable-background:new    ;}
	.st9{fill:url(#SVGID_7_);}
	.st10{fill:none;}
	.st11{opacity:0.86;}
	.st12{opacity:0.8;fill:url(#SVGID_8_);enable-background:new    ;}
	.st13{opacity:0.8;fill:url(#SVGID_9_);enable-background:new    ;}
	.st14{opacity:0.63;fill:url(#SVGID_10_);enable-background:new    ;}
	.st15{opacity:0.47;fill:url(#SVGID_11_);enable-background:new    ;}
	.st16{opacity:0.8;fill:url(#SVGID_12_);enable-background:new    ;}
	.st17{fill:url(#SVGID_13_);}
	.st18{opacity:0.8;fill:url(#SVGID_14_);enable-background:new    ;}
	.st19{opacity:0.8;fill:url(#SVGID_15_);enable-background:new    ;}
	.st20{opacity:0.72;fill:url(#SVGID_16_);enable-background:new    ;}
	.st21{opacity:0.47;fill:url(#SVGID_17_);enable-background:new    ;}
	.st22{opacity:0.8;fill:url(#SVGID_18_);enable-background:new    ;}
	.st23{fill:url(#SVGID_19_);}
	.st24{opacity:0.45;}
	.st25{fill:url(#SVGID_20_);}
	.st26{opacity:0.8;}
	.st27{fill:url(#SVGID_21_);}
	.st28{fill:url(#SVGID_22_);}
	.st29{fill:url(#SVGID_23_);}
	.st30{opacity:0.59;fill:none;stroke:#0081FF;stroke-miterlimit:10;enable-background:new    ;}
</style>
<linearGradient id="SVGID_1_" gradientUnits="userSpaceOnUse" x1="155.0515" y1="393.6398" x2="528.9485" y2="393.6398" gradientTransform="matrix(1 0 0 -1 0 677.8898)">
	<stop  offset="0" style="stop-color:#30D2FF"/>
	<stop  offset="0.1276" style="stop-color:#2DC7FC"/>
	<stop  offset="0.3489" style="stop-color:#24ABF3"/>
	<stop  offset="0.6374" style="stop-color:#157DE5"/>
	<stop  offset="0.9787" style="stop-color:#013ED2"/>
	<stop  offset="1" style="stop-color:#003AD1"/>
</linearGradient>
<line class="st0" x1="155.3" y1="177.3" x2="528.7" y2="391.2"/>
<g>
	<g class="st1">
		<g class="st2">
			<g class="st3">
				
					<linearGradient id="SVGID_2_" gradientUnits="userSpaceOnUse" x1="127.1664" y1="151.0815" x2="233.043" y2="89.9535" gradientTransform="matrix(1 0 0 1 0 124.5103)">
					<stop  offset="0" style="stop-color:#007AEF"/>
					<stop  offset="1" style="stop-color:#39C5FF;stop-opacity:0.4"/>
				</linearGradient>
				<polygon class="st4" points="226.4,316.2 141.7,267.1 141.7,169.3 226.4,218.2 				"/>
			</g>
			
				<linearGradient id="SVGID_3_" gradientUnits="userSpaceOnUse" x1="153.2188" y1="127.5805" x2="298.5645" y2="115.3465" gradientTransform="matrix(1 0 0 1 0 124.5103)">
				<stop  offset="0" style="stop-color:#003AD1"/>
				<stop  offset="0.2612" style="stop-color:#0F69DF"/>
				<stop  offset="0.6059" style="stop-color:#21A2F0"/>
				<stop  offset="0.8624" style="stop-color:#2CC5FB"/>
				<stop  offset="1" style="stop-color:#30D2FF"/>
			</linearGradient>
			<polygon class="st5" points="226.4,316.2 310.3,266.6 310.3,168.6 226.4,218.2 			"/>
		</g>
	</g>
	
		<linearGradient id="SVGID_4_" gradientUnits="userSpaceOnUse" x1="82.5206" y1="212.9062" x2="247.8342" y2="18.8031" gradientTransform="matrix(1 0 0 1 0 124.5103)">
		<stop  offset="4.136815e-02" style="stop-color:#009BFF"/>
		<stop  offset="6.584023e-02" style="stop-color:#089FFF"/>
		<stop  offset="0.2564" style="stop-color:#46BCFF"/>
		<stop  offset="0.4393" style="stop-color:#78D4FF"/>
		<stop  offset="0.6098" style="stop-color:#A0E7FF"/>
		<stop  offset="0.7651" style="stop-color:#BDF4FF"/>
		<stop  offset="0.9003" style="stop-color:#CEFCFF"/>
		<stop  offset="1" style="stop-color:#D4FFFF"/>
	</linearGradient>
	<polygon class="st6" points="226.4,120.2 141.7,169.3 226.4,218.2 310.3,168.6 	"/>
	<g>
		<g>
			
				<linearGradient id="SVGID_5_" gradientUnits="userSpaceOnUse" x1="162.4633" y1="95.1387" x2="269.7504" y2="52.0991" gradientTransform="matrix(1 0 0 1 0 124.5103)">
				<stop  offset="0.2181" style="stop-color:#26C0FF"/>
				<stop  offset="1" style="stop-color:#C7F0FF;stop-opacity:0.35"/>
			</linearGradient>
			<polygon class="st7" points="226.4,169.8 184.3,194.1 226.4,218.2 268.2,193.3 			"/>
			
				<linearGradient id="SVGID_6_" gradientUnits="userSpaceOnUse" x1="174.9265" y1="112.4675" x2="231.4633" y2="100.058" gradientTransform="matrix(1 0 0 1 0 124.5103)">
				<stop  offset="0.2453" style="stop-color:#00A0FF"/>
				<stop  offset="1" style="stop-color:#18D4FF;stop-opacity:0.3229"/>
			</linearGradient>
			<polygon class="st8" points="226.4,266.5 184.3,242.2 184.3,194.1 226.4,218.2 			"/>
		</g>
		
			<linearGradient id="SVGID_7_" gradientUnits="userSpaceOnUse" x1="178.1976" y1="175.0921" x2="265.8135" y2="87.4762" gradientTransform="matrix(1 0 0 1 0 124.5103)">
			<stop  offset="0.2299" style="stop-color:#007CFF"/>
			<stop  offset="1" style="stop-color:#39C5FF;stop-opacity:0.25"/>
		</linearGradient>
		<polygon class="st9" points="226.4,266.5 268.2,242.8 268.2,193.3 226.4,218.2 		"/>
	</g>
</g>
<path class="st10" d="M495.9,285.8"/>
<g>
	<g class="st11">
		<g class="st2">
			<g class="st3">
				
					<linearGradient id="SVGID_8_" gradientUnits="userSpaceOnUse" x1="276.97" y1="238.1793" x2="382.8467" y2="177.0514" gradientTransform="matrix(1 0 0 1 0 124.5103)">
					<stop  offset="0" style="stop-color:#007AEF"/>
					<stop  offset="1" style="stop-color:#39C5FF;stop-opacity:0.4"/>
				</linearGradient>
				<polygon class="st12" points="376.2,403.3 291.5,354.2 291.5,256.4 376.2,305.3 				"/>
			</g>
			
				<linearGradient id="SVGID_9_" gradientUnits="userSpaceOnUse" x1="303.0191" y1="214.6805" x2="448.3647" y2="202.4464" gradientTransform="matrix(1 0 0 1 0 124.5103)">
				<stop  offset="0" style="stop-color:#003AD1"/>
				<stop  offset="0.2612" style="stop-color:#0F69DF"/>
				<stop  offset="0.6059" style="stop-color:#21A2F0"/>
				<stop  offset="0.8624" style="stop-color:#2CC5FB"/>
				<stop  offset="1" style="stop-color:#30D2FF"/>
			</linearGradient>
			<polygon class="st13" points="376.2,403.3 460.1,353.7 460.1,255.7 376.2,305.3 			"/>
		</g>
	</g>
	
		<linearGradient id="SVGID_10_" gradientUnits="userSpaceOnUse" x1="232.325" y1="300.0008" x2="397.6387" y2="105.8978" gradientTransform="matrix(1 0 0 1 0 124.5103)">
		<stop  offset="4.136815e-02" style="stop-color:#009BFF"/>
		<stop  offset="6.584023e-02" style="stop-color:#089FFF"/>
		<stop  offset="0.2564" style="stop-color:#46BCFF"/>
		<stop  offset="0.4393" style="stop-color:#78D4FF"/>
		<stop  offset="0.6098" style="stop-color:#A0E7FF"/>
		<stop  offset="0.7651" style="stop-color:#BDF4FF"/>
		<stop  offset="0.9003" style="stop-color:#CEFCFF"/>
		<stop  offset="1" style="stop-color:#D4FFFF"/>
	</linearGradient>
	<polygon class="st14" points="376.2,207.3 291.5,256.4 376.2,305.3 460.1,255.7 	"/>
	<g>
		<g>
			
				<linearGradient id="SVGID_11_" gradientUnits="userSpaceOnUse" x1="312.2661" y1="182.2375" x2="419.5533" y2="139.198" gradientTransform="matrix(1 0 0 1 0 124.5103)">
				<stop  offset="0.2181" style="stop-color:#26C0FF"/>
				<stop  offset="1" style="stop-color:#C7F0FF;stop-opacity:0.35"/>
			</linearGradient>
			<polygon class="st15" points="376.2,256.9 334.1,281.2 376.2,305.3 418,280.4 			"/>
			
				<linearGradient id="SVGID_12_" gradientUnits="userSpaceOnUse" x1="324.7279" y1="199.5672" x2="381.2647" y2="187.1576" gradientTransform="matrix(1 0 0 1 0 124.5103)">
				<stop  offset="0.2453" style="stop-color:#00A0FF"/>
				<stop  offset="1" style="stop-color:#18D4FF;stop-opacity:0.3229"/>
			</linearGradient>
			<polygon class="st16" points="376.2,353.6 334.1,329.3 334.1,281.2 376.2,305.3 			"/>
		</g>
		
			<linearGradient id="SVGID_13_" gradientUnits="userSpaceOnUse" x1="328.002" y1="262.1876" x2="415.618" y2="174.5717" gradientTransform="matrix(1 0 0 1 0 124.5103)">
			<stop  offset="0.2299" style="stop-color:#007CFF"/>
			<stop  offset="1" style="stop-color:#39C5FF;stop-opacity:0.25"/>
		</linearGradient>
		<polygon class="st17" points="376.2,353.6 418,329.9 418,280.4 376.2,305.3 		"/>
	</g>
</g>
<g>
	<g>
		<g class="st2">
			<g class="st3">
				
					<linearGradient id="SVGID_14_" gradientUnits="userSpaceOnUse" x1="429.3263" y1="324.9257" x2="535.203" y2="263.7979" gradientTransform="matrix(1 0 0 1 0 124.5103)">
					<stop  offset="0" style="stop-color:#007AEF"/>
					<stop  offset="1" style="stop-color:#39C5FF;stop-opacity:0.4"/>
				</linearGradient>
				<polygon class="st18" points="528.6,490.1 443.9,441 443.9,343.1 528.6,392.1 				"/>
			</g>
			
				<linearGradient id="SVGID_15_" gradientUnits="userSpaceOnUse" x1="455.3871" y1="301.479" x2="600.7327" y2="289.2449" gradientTransform="matrix(1 0 0 1 0 124.5103)">
				<stop  offset="0" style="stop-color:#003AD1"/>
				<stop  offset="0.2612" style="stop-color:#0F69DF"/>
				<stop  offset="0.6059" style="stop-color:#21A2F0"/>
				<stop  offset="0.8624" style="stop-color:#2CC5FB"/>
				<stop  offset="1" style="stop-color:#30D2FF"/>
			</linearGradient>
			<polygon class="st19" points="528.6,490.1 612.4,440.5 612.4,342.5 528.6,392.1 			"/>
		</g>
	</g>
	
		<linearGradient id="SVGID_16_" gradientUnits="userSpaceOnUse" x1="384.6756" y1="386.7501" x2="549.9893" y2="192.647" gradientTransform="matrix(1 0 0 1 0 124.5103)">
		<stop  offset="4.136815e-02" style="stop-color:#009BFF"/>
		<stop  offset="6.584023e-02" style="stop-color:#089FFF"/>
		<stop  offset="0.2564" style="stop-color:#46BCFF"/>
		<stop  offset="0.4393" style="stop-color:#78D4FF"/>
		<stop  offset="0.6098" style="stop-color:#A0E7FF"/>
		<stop  offset="0.7651" style="stop-color:#BDF4FF"/>
		<stop  offset="0.9003" style="stop-color:#CEFCFF"/>
		<stop  offset="1" style="stop-color:#D4FFFF"/>
	</linearGradient>
	<polygon class="st20" points="528.6,294.1 443.9,343.1 528.6,392.1 612.4,342.5 	"/>
	<g>
		<g>
			
				<linearGradient id="SVGID_17_" gradientUnits="userSpaceOnUse" x1="464.6422" y1="269.0271" x2="571.9294" y2="225.9875" gradientTransform="matrix(1 0 0 1 0 124.5103)">
				<stop  offset="0.2181" style="stop-color:#26C0FF"/>
				<stop  offset="1" style="stop-color:#C7F0FF;stop-opacity:0.35"/>
			</linearGradient>
			<polygon class="st21" points="528.6,343.7 486.5,368 528.6,392.1 570.4,367.1 			"/>
			
				<linearGradient id="SVGID_18_" gradientUnits="userSpaceOnUse" x1="477.1001" y1="286.3623" x2="533.6369" y2="273.9528" gradientTransform="matrix(1 0 0 1 0 124.5103)">
				<stop  offset="0.2453" style="stop-color:#00A0FF"/>
				<stop  offset="1" style="stop-color:#18D4FF;stop-opacity:0.3229"/>
			</linearGradient>
			<polygon class="st22" points="528.6,440.4 486.5,416.1 486.5,368 528.6,392.1 			"/>
		</g>
		
			<linearGradient id="SVGID_19_" gradientUnits="userSpaceOnUse" x1="480.4038" y1="348.9858" x2="568.0198" y2="261.3699" gradientTransform="matrix(1 0 0 1 0 124.5103)">
			<stop  offset="0.2299" style="stop-color:#007CFF"/>
			<stop  offset="1" style="stop-color:#39C5FF;stop-opacity:0.25"/>
		</linearGradient>
		<polygon class="st23" points="528.6,440.4 570.4,416.7 570.4,367.1 528.6,392.1 		"/>
	</g>
</g>
<g>
	<g class="st24">
		
			<linearGradient id="SVGID_20_" gradientUnits="userSpaceOnUse" x1="271.375" y1="461.7148" x2="400.175" y2="590.5148" gradientTransform="matrix(1 0 0 -1 0 677.8898)">
			<stop  offset="3.422619e-02" style="stop-color:#FFFFFF"/>
			<stop  offset="1" style="stop-color:#FFFFFF;stop-opacity:0.1"/>
		</linearGradient>
		<path class="st25" d="M393.4,156.7l-0.2-76.3l-57.6-4.9l-57.4,71.4l0.2,76.3l3.9-4.9l-3.9,4.9L336,228L393.4,156.7l-3.9-0.3
			L393.4,156.7z"/>
	</g>
	<g class="st26">
		
			<linearGradient id="SVGID_21_" gradientUnits="userSpaceOnUse" x1="298.5" y1="446.1898" x2="427.3" y2="574.9897" gradientTransform="matrix(1 0 0 -1 0 677.8898)">
			<stop  offset="3.422619e-02" style="stop-color:#FFFFFF"/>
			<stop  offset="1" style="stop-color:#FFFFFF;stop-opacity:0.1"/>
		</linearGradient>
		<path class="st27" d="M420.5,172.2l-0.2-76.3L362.7,91l-57.4,71.4l0.2,76.3l3.9-4.9l-3.9,4.9l57.6,4.9L420.5,172.2l-3.9-0.3
			L420.5,172.2z"/>
	</g>
	<g>
		
			<linearGradient id="SVGID_22_" gradientUnits="userSpaceOnUse" x1="350.575" y1="455.4148" x2="427.975" y2="532.8148" gradientTransform="matrix(1 0 0 -1 0 677.8898)">
			<stop  offset="0" style="stop-color:#008FFF"/>
			<stop  offset="1" style="stop-color:#39C5FF;stop-opacity:0.25"/>
		</linearGradient>
		<path class="st28" d="M407.2,185.9L407.2,185.9l-3.2-1.8c1.2-3.4,1.9-6.9,1.9-10.1c0-3.2-0.7-5.9-2-7.9l3.2-5.5l0,0l10.4-18l0,0
			l2.9-5.1l-8.9-0.8L396.8,162c-2.3,0-4.9,0.7-7.7,2.3c-2.7,1.6-5.3,3.8-7.6,6.5l-14.9-8.1l-8.9,11l2.9,1.7l0,0l10.5,6l0,0l3.2,1.8
			c-1.2,3.4-1.9,6.9-1.9,10.2s0.7,5.9,2,7.9l-3.1,5.4l0,0l-10.4,18.1l-2.9,5.1l8.9,0.8l14.8-25.3c2.3,0,4.9-0.7,7.7-2.3
			c2.8-1.6,5.4-3.9,7.7-6.6l12.9,7l1,0.6l0,0l1.1,0.6l8.9-11l-6.4-3.7L407.2,185.9z M392,191.7c-0.9,0.9-1.9,1.6-2.9,2.2
			c-1,0.6-2,0.9-2.9,1.1c-2.6,0.5-4.7-0.7-5.6-3.2c-0.3-0.9-0.5-1.9-0.5-3c0-1.2,0.2-2.4,0.5-3.6c0.9-3.5,2.9-7.1,5.6-9.6
			c0.9-0.9,1.9-1.6,2.9-2.2c1-0.6,2-0.9,2.9-1.1c2.6-0.5,4.7,0.7,5.6,3.2c0.3,0.9,0.5,1.9,0.5,3c0,1.2-0.2,2.4-0.5,3.6
			C396.7,185.6,394.7,189.2,392,191.7z"/>
		
			<linearGradient id="SVGID_23_" gradientUnits="userSpaceOnUse" x1="324.8" y1="429.7898" x2="453.6" y2="558.5898" gradientTransform="matrix(1 0 0 -1 0 677.8898)">
			<stop  offset="0" style="stop-color:#008FFF"/>
			<stop  offset="1" style="stop-color:#39C5FF;stop-opacity:0.25"/>
		</linearGradient>
		<path class="st29" d="M446.8,188.6l-0.2-76.3l-57.6-4.9l-57.4,71.4l0.2,76.3l3.9-4.9l-3.9,4.9l57.6,4.9L446.8,188.6l-3.9-0.3
			L446.8,188.6z M389.3,246.9l-47.7-4.1l-0.2-63.2l47.5-59.1l47.7,4.1l0.2,63.2L389.3,246.9z"/>
	</g>
</g>
<line class="st30" x1="571.1" y1="415.7" x2="675.3" y2="475.4"/>
</svg>
