<?xml version="1.0" encoding="utf-8"?>
<!-- Generator: Adobe Illustrator 23.1.1, SVG Export Plug-In . SVG Version: 6.00 Build 0)  -->
<svg version="1.1" id="Layer_1" xmlns="http://www.w3.org/2000/svg" xmlns:xlink="http://www.w3.org/1999/xlink" x="0px" y="0px"
	 viewBox="0 0 740.6 678.5" style="enable-background:new 0 0 740.6 678.5;" xml:space="preserve">
<style type="text/css">
	.st0{opacity:0.99;}
	.st1{opacity:0.2;}
	.st2{enable-background:new    ;}
	.st3{fill:url(#SVGID_1_);}
	.st4{fill:url(#SVGID_2_);}
	.st5{fill:url(#SVGID_3_);}
	.st6{fill:url(#SVGID_4_);}
	.st7{fill:url(#SVGID_5_);}
	.st8{fill:url(#SVGID_6_);}
	.st9{fill:url(#SVGID_7_);}
	.st10{fill:url(#SVGID_8_);}
	.st11{opacity:0.49;}
	.st12{fill:url(#SVGID_9_);}
	.st13{fill:url(#SVGID_10_);}
	.st14{fill:url(#SVGID_11_);}
	.st15{fill:url(#SVGID_12_);}
	.st16{fill:none;}
</style>
<g class="st0">
	<g class="st1">
		<g class="st2">
			<g>
				<linearGradient id="SVGID_1_" gradientUnits="userSpaceOnUse" x1="217.2896" y1="6.7739" x2="207.9709" y2="610.1638">
					<stop  offset="0" style="stop-color:#AAD0FF;stop-opacity:0.8"/>
					<stop  offset="0.9292" style="stop-color:#3084FF"/>
				</linearGradient>
				<path class="st3" d="M259,381.3l-47.4,27.4l0.1,27.2l23.8,13.5l0.2,54.4l47.2-81.8l-0.1-27.2L259,381.3 M258.6,272.4
					l-118.5,68.4l23.8,13.5l0.1,27.2l47.5,27.1l-0.1-27.2l47.2-81.8L258.6,272.4"/>
				<linearGradient id="SVGID_2_" gradientUnits="userSpaceOnUse" x1="413.3989" y1="9.8026" x2="404.0801" y2="613.1925">
					<stop  offset="0" style="stop-color:#AAD0FF;stop-opacity:0.8"/>
					<stop  offset="0.9292" style="stop-color:#3084FF"/>
				</linearGradient>
				<polyline class="st4" points="516.7,130.6 327.2,240 303.5,280.9 303.6,308.1 351,280.8 374.8,294.3 422.2,267 422.2,294.2 
					469.5,212.4 493.2,198.7 516.8,157.8 516.7,130.6 				"/>
				<linearGradient id="SVGID_3_" gradientUnits="userSpaceOnUse" x1="355.6435" y1="8.9106" x2="346.3247" y2="612.3005">
					<stop  offset="0" style="stop-color:#AAD0FF;stop-opacity:0.8"/>
					<stop  offset="0.9292" style="stop-color:#3084FF"/>
				</linearGradient>
				<polyline class="st5" points="351,291.9 303.6,319.3 303.7,346.5 327.5,360 327.6,414.5 398.5,291.8 374.8,305.5 351,291.9 				
					"/>
				<linearGradient id="SVGID_4_" gradientUnits="userSpaceOnUse" x1="501.4351" y1="11.1622" x2="492.1164" y2="614.5522">
					<stop  offset="0" style="stop-color:#AAD0FF;stop-opacity:0.8"/>
					<stop  offset="0.9292" style="stop-color:#3084FF"/>
				</linearGradient>
				<polyline class="st6" points="520.7,266.8 473.3,294.2 473.4,321.4 497.1,307.7 497.2,334.9 520.8,294 520.7,266.8 				"/>
			</g>
		</g>
	</g>
	<g>
		<g class="st2">
			<g>
				<linearGradient id="SVGID_5_" gradientUnits="userSpaceOnUse" x1="277.6903" y1="42.0245" x2="268.3715" y2="645.4145">
					<stop  offset="0" style="stop-color:#AAD0FF;stop-opacity:0.8"/>
					<stop  offset="0.9292" style="stop-color:#3084FF"/>
				</linearGradient>
				<path class="st7" d="M319.4,416.5L272,443.9l0.1,27.2l23.8,13.5l0.2,54.4l47.2-81.8l-0.1-27.2L319.4,416.5 M319,307.6L200.6,376
					l23.8,13.5l0.1,27.2l47.5,27.1l-0.1-27.2l47.2-81.8L319,307.6"/>
				<linearGradient id="SVGID_6_" gradientUnits="userSpaceOnUse" x1="473.7996" y1="45.0533" x2="464.4808" y2="648.4432">
					<stop  offset="0" style="stop-color:#AAD0FF;stop-opacity:0.8"/>
					<stop  offset="0.9292" style="stop-color:#3084FF"/>
				</linearGradient>
				<polyline class="st8" points="577.1,165.8 387.6,275.3 363.9,316.2 364,343.4 411.4,316 435.2,329.6 482.6,302.2 482.6,329.5 
					529.9,247.6 553.6,234 577.2,193.1 577.1,165.8 				"/>
				<linearGradient id="SVGID_7_" gradientUnits="userSpaceOnUse" x1="416.0441" y1="44.1613" x2="406.7254" y2="647.5512">
					<stop  offset="0" style="stop-color:#AAD0FF;stop-opacity:0.8"/>
					<stop  offset="0.9292" style="stop-color:#3084FF"/>
				</linearGradient>
				<polyline class="st9" points="411.4,327.2 364,354.5 364.1,381.7 387.9,395.3 388,449.7 458.9,327 435.2,340.7 411.4,327.2 				
					"/>
				<linearGradient id="SVGID_8_" gradientUnits="userSpaceOnUse" x1="561.8358" y1="46.4129" x2="552.517" y2="649.8029">
					<stop  offset="0" style="stop-color:#AAD0FF;stop-opacity:0.8"/>
					<stop  offset="0.9292" style="stop-color:#3084FF"/>
				</linearGradient>
				<polyline class="st10" points="581.1,302.1 533.7,329.4 533.8,356.6 557.5,342.9 557.6,370.2 581.2,329.3 581.1,302.1 				"/>
			</g>
		</g>
	</g>
	<g class="st11">
		<g class="st2">
			<g>
				<linearGradient id="SVGID_9_" gradientUnits="userSpaceOnUse" x1="246.2202" y1="23.4345" x2="236.9015" y2="626.8244">
					<stop  offset="0" style="stop-color:#AAD0FF;stop-opacity:0.8"/>
					<stop  offset="0.9292" style="stop-color:#3084FF"/>
				</linearGradient>
				<path class="st12" d="M287.9,397.9l-47.4,27.4l0.1,27.2l23.8,13.5l0.2,54.4l47.2-81.8l-0.1-27.2L287.9,397.9 M287.6,289
					l-118.5,68.4l23.8,13.5l0.1,27.2l47.5,27.1l-0.1-27.2l47.2-81.8L287.6,289"/>
				<linearGradient id="SVGID_10_" gradientUnits="userSpaceOnUse" x1="442.3295" y1="26.4632" x2="433.0107" y2="629.8531">
					<stop  offset="0" style="stop-color:#AAD0FF;stop-opacity:0.8"/>
					<stop  offset="0.9292" style="stop-color:#3084FF"/>
				</linearGradient>
				<polyline class="st13" points="545.6,147.2 356.1,256.7 332.5,297.6 332.5,324.8 379.9,297.4 403.7,311 451.1,283.6 
					451.2,310.9 498.4,229 522.1,215.4 545.7,174.5 545.6,147.2 				"/>
				<linearGradient id="SVGID_11_" gradientUnits="userSpaceOnUse" x1="384.5741" y1="25.5712" x2="375.2553" y2="628.9612">
					<stop  offset="0" style="stop-color:#AAD0FF;stop-opacity:0.8"/>
					<stop  offset="0.9292" style="stop-color:#3084FF"/>
				</linearGradient>
				<polyline class="st14" points="380,308.6 332.6,335.9 332.6,363.2 356.4,376.7 356.6,431.2 427.4,308.4 403.7,322.1 380,308.6 
									"/>
				<linearGradient id="SVGID_12_" gradientUnits="userSpaceOnUse" x1="530.3657" y1="27.8228" x2="521.0469" y2="631.2128">
					<stop  offset="0" style="stop-color:#AAD0FF;stop-opacity:0.8"/>
					<stop  offset="0.9292" style="stop-color:#3084FF"/>
				</linearGradient>
				<polyline class="st15" points="549.6,283.5 502.3,310.8 502.3,338.1 526,324.4 526.1,351.6 549.7,310.7 549.6,283.5 				"/>
			</g>
		</g>
	</g>
</g>
<path class="st16" d="M515.2,308.1"/>
</svg>
