<?xml version="1.0" encoding="utf-8"?>
<!-- Generator: Adobe Illustrator 23.1.1, SVG Export Plug-In . SVG Version: 6.00 Build 0)  -->
<svg version="1.1" id="Layer_1" xmlns="http://www.w3.org/2000/svg" xmlns:xlink="http://www.w3.org/1999/xlink" x="0px" y="0px"
	 viewBox="0 0 740.6 678.5" style="enable-background:new 0 0 740.6 678.5;" xml:space="preserve">
<style type="text/css">
	.st0{fill:none;}
	.st1{opacity:0.4;}
	.st2{enable-background:new    ;}
	.st3{fill:url(#SVGID_1_);}
	.st4{opacity:0.6;}
	.st5{fill:url(#SVGID_2_);}
	.st6{fill:url(#SVGID_4_);}
	.st7{fill:#FFFFFF;}
	.st8{fill:url(#SVGID_5_);}
	.st9{fill:url(#SVGID_7_);}
	.st10{fill:url(#SVGID_8_);}
	.st11{fill:url(#SVGID_10_);}
	.st12{fill:url(#SVGID_11_);}
	.st13{fill:url(#SVGID_12_);}
	.st14{fill:url(#SVGID_13_);}
	.st15{fill:url(#SVGID_14_);}
</style>
<path class="st0" d="M542.2,358.7"/>
<g class="st1">
	<g class="st2">
		<g>
			<g>
				<g>
					<g>
						
							<linearGradient id="SVGID_1_" gradientUnits="userSpaceOnUse" x1="296.7186" y1="672.9814" x2="449.9" y2="519.8" gradientTransform="matrix(1 0 0 1 0 -164)">
							<stop  offset="0" style="stop-color:#005AFF;stop-opacity:0.8"/>
							<stop  offset="0.1633" style="stop-color:#045DFF;stop-opacity:0.7184"/>
							<stop  offset="0.3095" style="stop-color:#0E65FF;stop-opacity:0.6453"/>
							<stop  offset="0.4491" style="stop-color:#2172FF;stop-opacity:0.5754"/>
							<stop  offset="0.5848" style="stop-color:#3A85FF;stop-opacity:0.5076"/>
							<stop  offset="0.7176" style="stop-color:#5C9EFF;stop-opacity:0.4412"/>
							<stop  offset="0.8482" style="stop-color:#84BCFF;stop-opacity:0.3759"/>
							<stop  offset="0.9748" style="stop-color:#B4DEFF;stop-opacity:0.3126"/>
							<stop  offset="1" style="stop-color:#BEE6FF;stop-opacity:0.3"/>
						</linearGradient>
						<path id="SVGID_3_" class="st3" d="M469.2,376.6c-4.7-2.7-10.6-4.7-17.2-5.8l-94.5-14.6c-13.2-2.1-27.4,0.1-37,5.8l-68.9,40
							c-9.7,5.6-13.4,13.8-9.8,21.5l25.6,54.7c1.8,3.8,5.3,7.2,10,10s10.6,4.7,17.2,5.8l94.5,14.6c13.2,2.1,27.4-0.1,37-5.8l68.9-40
							c9.7-5.6,13.4-13.8,9.8-21.5l-25.6-54.7C477.4,382.8,473.9,379.3,469.2,376.6"/>
					</g>
				</g>
			</g>
		</g>
	</g>
</g>
<g class="st4">
	<g class="st2">
		<g>
			<g>
				<g>
					<g>
						
							<linearGradient id="SVGID_2_" gradientUnits="userSpaceOnUse" x1="296.7186" y1="638.1814" x2="449.9" y2="485" gradientTransform="matrix(1 0 0 1 0 -164)">
							<stop  offset="0" style="stop-color:#005AFF;stop-opacity:0.8"/>
							<stop  offset="0.1091" style="stop-color:#075FFF;stop-opacity:0.7453"/>
							<stop  offset="0.2622" style="stop-color:#196CFF;stop-opacity:0.6686"/>
							<stop  offset="0.4413" style="stop-color:#3782FF;stop-opacity:0.5789"/>
							<stop  offset="0.6402" style="stop-color:#61A1FF;stop-opacity:0.4792"/>
							<stop  offset="0.8527" style="stop-color:#96C8FF;stop-opacity:0.3727"/>
							<stop  offset="0.9979" style="stop-color:#BEE6FF;stop-opacity:0.3"/>
						</linearGradient>
						<path id="SVGID_6_" class="st5" d="M469.2,341.8c-4.7-2.7-10.6-4.7-17.2-5.8l-94.5-14.6c-13.2-2.1-27.4,0.1-37,5.8l-68.9,40
							c-9.7,5.6-13.4,13.8-9.8,21.5l25.6,54.7c1.8,3.8,5.3,7.2,10,10s10.6,4.7,17.2,5.8l94.5,14.6c13.2,2.1,27.4-0.1,37-5.8l68.9-40
							c9.7-5.6,13.4-13.8,9.8-21.5l-25.6-54.7C477.4,348,473.9,344.5,469.2,341.8"/>
					</g>
				</g>
			</g>
		</g>
	</g>
</g>
<g>
	<g class="st2">
		<g>
			<g>
				<g>
					<g>
						
							<linearGradient id="SVGID_4_" gradientUnits="userSpaceOnUse" x1="294.4821" y1="623.6417" x2="504.1346" y2="367.1105" gradientTransform="matrix(1 0 0 1 0 -164)">
							<stop  offset="0" style="stop-color:#005AFF;stop-opacity:0.8"/>
							<stop  offset="0.1207" style="stop-color:#0F65FF;stop-opacity:0.7034"/>
							<stop  offset="0.3533" style="stop-color:#3782FF;stop-opacity:0.5174"/>
							<stop  offset="0.6742" style="stop-color:#76B1FF;stop-opacity:0.2607"/>
							<stop  offset="1" style="stop-color:#BEE6FF;stop-opacity:0"/>
						</linearGradient>
						<path id="SVGID_9_" class="st6" d="M469.2,307.4c-4.7-2.7-10.6-4.7-17.2-5.8L357.5,287c-13.2-2.1-27.4,0.1-37,5.8l-68.9,40
							c-9.7,5.6-13.4,13.8-9.8,21.5l25.6,54.7c1.8,3.8,5.3,7.2,10,10s10.6,4.7,17.2,5.8l94.5,14.6c13.2,2.1,27.4-0.1,37-5.8l68.9-40
							c9.7-5.6,13.4-13.8,9.8-21.5l-25.6-54.7C477.4,313.5,473.9,310.1,469.2,307.4"/>
					</g>
				</g>
			</g>
		</g>
	</g>
</g>
<g>
	<g class="st2">
		<g>
			<path class="st7" d="M421.7,330.9c-27.7-16-72.4-16-100,0c-27.5,16-27.4,41.9,0.3,57.9c27.7,16,72.5,16,100,0
				S449.4,346.9,421.7,330.9"/>
		</g>
	</g>
</g>
<linearGradient id="SVGID_5_" gradientUnits="userSpaceOnUse" x1="301.1816" y1="508.7" x2="442.5414" y2="508.7" gradientTransform="matrix(1 0 0 1 0 -164)">
	<stop  offset="7.080000e-02" style="stop-color:#3084FF"/>
	<stop  offset="1" style="stop-color:#AAD0FF;stop-opacity:0"/>
</linearGradient>
<path class="st8" d="M321.7,352.2c27.5-16,72.3-16,100,0c9.2,5.3,15.3,11.7,18.4,18.4c6.4-13.7,0.2-29-18.4-39.8
	c-27.7-16-72.4-16-100,0c-18.4,10.7-24.4,25.9-18.1,39.5C306.7,363.7,312.7,357.5,321.7,352.2z"/>
<g>
	<g>
		
			<linearGradient id="SVGID_7_" gradientUnits="userSpaceOnUse" x1="372.25" y1="600.5908" x2="372.25" y2="244.7512" gradientTransform="matrix(1 0 0 1 0 -164)">
			<stop  offset="0" style="stop-color:#00FA96"/>
			<stop  offset="0.7936" style="stop-color:#00FA96;stop-opacity:0"/>
		</linearGradient>
		<path class="st9" d="M443.1,356.8l-0.3-227.7H301.4v230.8l0,0c0,11.4,6.8,21.3,20.8,29.4c27.7,16,72.4,16,99.9,0
			C437.4,380.4,443.1,368.6,443.1,356.8z"/>
		<g>
			<g class="st2">
				<g>
					
						<linearGradient id="SVGID_8_" gradientUnits="userSpaceOnUse" x1="331.216" y1="565.134" x2="412.7839" y2="483.5659" gradientTransform="matrix(1 0 0 1 0 -164)">
						<stop  offset="8.490000e-02" style="stop-color:#FFFFFF;stop-opacity:0"/>
						<stop  offset="1" style="stop-color:#FFFFFF;stop-opacity:0.9"/>
					</linearGradient>
					<path class="st10" d="M421.8,331.4c-27.7-16-72.4-16-99.9,0s-27.4,41.9,0.3,57.9c27.7,16,72.4,16,99.9,0
						C449.6,373.3,449.5,347.4,421.8,331.4"/>
				</g>
			</g>
		</g>
	</g>
</g>
<g>
	<g class="st2">
		<g>
			
				<linearGradient id="SVGID_10_" gradientUnits="userSpaceOnUse" x1="308.2" y1="583.0386" x2="308.2" y2="217.6341" gradientTransform="matrix(1 0 0 1 0 -164)">
				<stop  offset="0" style="stop-color:#005AFF"/>
				<stop  offset="0.1055" style="stop-color:#0961FF"/>
				<stop  offset="0.2789" style="stop-color:#2273FF"/>
				<stop  offset="0.4988" style="stop-color:#4A91FF"/>
				<stop  offset="0.7537" style="stop-color:#82BAFF"/>
				<stop  offset="1" style="stop-color:#BEE6FF"/>
			</linearGradient>
			<path class="st11" d="M309,266.3l-1.7,1v15.1l-3.1,1.8c-1.6,0.9-2.8,3-2.8,4.8l0.1,37.9c0,1.8,1.2,2.5,2.8,1.6l3.1-1.8v15.1
				l1.7-1v-15.1l3.1-1.8c1.6-0.9,2.8-3,2.8-4.8l-0.1-37.9c0-1.8-1.2-2.5-2.8-1.6l-3.1,1.8V266.3"/>
			
				<linearGradient id="SVGID_11_" gradientUnits="userSpaceOnUse" x1="340" y1="583.0386" x2="340" y2="217.6341" gradientTransform="matrix(1 0 0 1 0 -164)">
				<stop  offset="0" style="stop-color:#005AFF"/>
				<stop  offset="0.1055" style="stop-color:#0961FF"/>
				<stop  offset="0.2789" style="stop-color:#2273FF"/>
				<stop  offset="0.4988" style="stop-color:#4A91FF"/>
				<stop  offset="0.7537" style="stop-color:#82BAFF"/>
				<stop  offset="1" style="stop-color:#BEE6FF"/>
			</linearGradient>
			<path class="st12" d="M340.7,158.1l-1.7,1v8.5l-3.1,1.8c-1.6,0.9-2.8,3-2.8,4.8l0.3,95.5c0,1.8,1.2,2.5,2.8,1.6l3.1-1.8l0.1,45
				l1.7-1l-0.1-45l3.1-1.8c1.6-0.9,2.8-3,2.8-4.8l-0.3-95.5c-0.2-1.7-1.4-2.4-2.8-1.6l-3.1,1.8V158.1"/>
			
				<linearGradient id="SVGID_12_" gradientUnits="userSpaceOnUse" x1="371.75" y1="583.0386" x2="371.75" y2="217.6341" gradientTransform="matrix(1 0 0 1 0 -164)">
				<stop  offset="0" style="stop-color:#005AFF"/>
				<stop  offset="0.1055" style="stop-color:#0961FF"/>
				<stop  offset="0.2789" style="stop-color:#2273FF"/>
				<stop  offset="0.4988" style="stop-color:#4A91FF"/>
				<stop  offset="0.7537" style="stop-color:#82BAFF"/>
				<stop  offset="1" style="stop-color:#BEE6FF"/>
			</linearGradient>
			<path class="st13" d="M372.5,158.6l-1.7,1l0.1,25.4l-3.1,1.8c-1.5,0.9-2.8,3-2.8,4.8v16.9c0,1.8,1.2,2.5,2.8,1.6l3.1-1.8
				l0.2,68.8l1.7-1l-0.2-69l3.1-1.8c1.6-0.9,2.8-3,2.8-4.8v-16.9c0-1.8-1.2-2.5-2.8-1.6l-3.1,1.8L372.5,158.6"/>
			
				<linearGradient id="SVGID_13_" gradientUnits="userSpaceOnUse" x1="403.75" y1="583.0386" x2="403.75" y2="217.6341" gradientTransform="matrix(1 0 0 1 0 -164)">
				<stop  offset="0" style="stop-color:#005AFF"/>
				<stop  offset="0.1055" style="stop-color:#0961FF"/>
				<stop  offset="0.2789" style="stop-color:#2273FF"/>
				<stop  offset="0.4988" style="stop-color:#4A91FF"/>
				<stop  offset="0.7537" style="stop-color:#82BAFF"/>
				<stop  offset="1" style="stop-color:#BEE6FF"/>
			</linearGradient>
			<path class="st14" d="M404.3,114.4l-1.7,1l0.2,80.5l-3.1,1.8c-1.6,0.9-2.8,3-2.8,4.8l0.2,67.2c0,1.8,1.2,2.5,2.8,1.6l3.1-1.8
				v16.1l1.7-1v-16.1l3.1-1.8c1.6-0.9,2.8-3,2.8-4.8l-0.2-67.2c-0.2-1.7-1.4-2.4-2.8-1.6l-3.1,1.8L404.3,114.4"/>
			
				<linearGradient id="SVGID_14_" gradientUnits="userSpaceOnUse" x1="435.4" y1="583.0386" x2="435.4" y2="217.6341" gradientTransform="matrix(1 0 0 1 0 -164)">
				<stop  offset="0" style="stop-color:#005AFF"/>
				<stop  offset="0.1055" style="stop-color:#0961FF"/>
				<stop  offset="0.2789" style="stop-color:#2273FF"/>
				<stop  offset="0.4988" style="stop-color:#4A91FF"/>
				<stop  offset="0.7537" style="stop-color:#82BAFF"/>
				<stop  offset="1" style="stop-color:#BEE6FF"/>
			</linearGradient>
			<path class="st15" d="M436.1,94.7l-1.7,1l0.1,21.6l-3.1,1.8c-1.6,0.9-2.8,3-2.8,4.8l0.1,37.9c0,1.8,1.2,2.5,2.8,1.6l3.1-1.8
				l0.1,21.6l1.7-1l-0.1-21.6l3.1-1.8c1.6-0.9,2.8-3,2.8-4.8l-0.1-37.9c0-1.8-1.2-2.5-2.8-1.6l-3.1,1.8L436.1,94.7"/>
		</g>
	</g>
</g>
</svg>
