<?xml version="1.0" encoding="UTF-8"?>
<svg width="46px" height="33px" viewBox="0 0 46 33" version="1.1" xmlns="http://www.w3.org/2000/svg" xmlns:xlink="http://www.w3.org/1999/xlink">
    <title>Group 9</title>
    <defs>
        <polygon id="path-1" points="0.835414328 0.177741313 44.4425572 0.177741313 44.4425572 13.9264482 0.835414328 13.9264482"></polygon>
        <polygon id="path-3" points="0.835414328 0.177741313 44.4425572 0.177741313 44.4425572 13.9264482 0.835414328 13.9264482"></polygon>
    </defs>
    <g id="Knox-Exchange" stroke="none" stroke-width="1" fill="none" fill-rule="evenodd">
        <g id="KnoxExchange/Home" transform="translate(-927.000000, -1942.000000)">
            <g id="Group-15" transform="translate(927.000000, 1682.000000)">
                <g id="Group-5" transform="translate(0.000000, 260.000000)">
                    <g id="Group-7" transform="translate(1.178571, 0.000000)">
                        <mask id="mask-2" fill="white">
                            <use xlink:href="#path-1"></use>
                        </mask>
                        <g id="Clip-5"></g>
                        <path d="M29.9841081,1.67320175 C29.1785476,0.952348594 27.8896507,1.54213754 27.8896507,2.62341727 L27.8896507,8.25917828 L4.44923165,8.25917828 C3.74033836,8.25917828 3.19255718,8.81620117 3.19255718,9.53705432 L3.19255718,11.863444 C3.19255718,12.5842972 3.74033836,13.1413201 4.44923165,13.1413201 L39.6508348,13.1413201 C40.810842,13.1740861 41.3586231,11.6996138 40.4563953,10.9132285 L29.9841081,1.67320175 Z" id="Fill-4" fill="#1269FF" mask="url(#mask-2)"></path>
                    </g>
                    <g id="Group-7-Copy" transform="translate(22.392857, 25.928571) scale(-1, -1) translate(-22.392857, -25.928571) translate(0.000000, 18.857143)">
                        <mask id="mask-4" fill="white">
                            <use xlink:href="#path-3"></use>
                        </mask>
                        <g id="Clip-5"></g>
                        <path d="M29.9841081,1.67320175 C29.1785476,0.952348594 27.8896507,1.54213754 27.8896507,2.62341727 L27.8896507,8.25917828 L4.44923165,8.25917828 C3.74033836,8.25917828 3.19255718,8.81620117 3.19255718,9.53705432 L3.19255718,11.863444 C3.19255718,12.5842972 3.74033836,13.1413201 4.44923165,13.1413201 L39.6508348,13.1413201 C40.810842,13.1740861 41.3586231,11.6996138 40.4563953,10.9132285 L29.9841081,1.67320175 Z" id="Fill-4" fill="#1269FF" opacity="0.402480015" mask="url(#mask-4)"></path>
                    </g>
                </g>
            </g>
        </g>
    </g>
</svg>