<?xml version="1.0" encoding="UTF-8"?>
<svg width="27px" height="32px" viewBox="0 0 27 32" version="1.1" xmlns="http://www.w3.org/2000/svg" xmlns:xlink="http://www.w3.org/1999/xlink">
    <title>User</title>
    <g id="Knox-Exchange" stroke="none" stroke-width="1" fill="none" fill-rule="evenodd">
        <g id="KnoxExchange/Home" transform="translate(-935.000000, -2054.000000)" fill="#1269FF">
            <g id="Group-15" transform="translate(927.000000, 1682.000000)">
                <g id="Group-9-Copy" transform="translate(8.000000, 372.000000)">
                    <g id="User" transform="translate(0.682759, 0.075862)">
                        <path d="M20.1793103,7.20689655 C20.1793103,11.1871502 16.9526386,14.4137931 12.9724138,14.4137931 C8.99216014,14.4137931 5.76551724,11.1871502 5.76551724,7.20689655 C5.76551724,3.2266429 8.99216014,0 12.9724138,0 C16.9526386,0 20.1793103,3.2266429 20.1793103,7.20689655 Z" id="Path"></path>
                        <path d="M22.7997379,18.9178152 C21.9112717,17.8876614 20.3851393,17.9407041 19.1918214,18.5939372 C17.3452703,19.6046324 15.2260103,20.1793103 12.9724138,20.1793103 C10.7188172,20.1793103 8.59952841,19.6046324 6.75293414,18.5939372 C5.55964503,17.9407041 4.03357028,17.8876614 3.14508966,18.9178152 C1.1851309,21.1902938 0,24.1498779 0,27.3862069 L0,28.8275862 C0,30.4195897 1.29065428,31.7103448 2.88275862,31.7103448 L23.062069,31.7103448 C24.6542166,31.7103448 25.9448276,30.4195897 25.9448276,28.8275862 L25.9448276,27.3862069 C25.9448276,24.1498779 24.7597255,21.1902938 22.7997379,18.9178152 Z" id="Path" opacity="0.3"></path>
                    </g>
                </g>
            </g>
        </g>
    </g>
</svg>