<?xml version="1.0" encoding="UTF-8"?>
<svg width="39px" height="45px" viewBox="0 0 39 45" version="1.1" xmlns="http://www.w3.org/2000/svg" xmlns:xlink="http://www.w3.org/1999/xlink">
    <title>Group 6</title>
    <g id="Knox-Exchange" stroke="none" stroke-width="1" fill="none" fill-rule="evenodd">
        <g id="KnoxExchange/Home" transform="translate(-930.000000, -1824.000000)" fill="#1269FF">
            <g id="Group-15" transform="translate(927.000000, 1682.000000)">
                <g id="Group-6" transform="translate(3.000000, 142.000000)">
                    <g id="Group-10" transform="translate(0.000000, -0.000000)">
                        <polygon id="Fill-8" points="38.0769231 20.7692308 36.9230769 20.7692308 36.9230769 13.8461538 35.7692308 13.8461538 35.7692308 20.7692308 34.6153846 20.7692308 34.6153846 38.0769231 35.7692308 38.0769231 35.7692308 45 36.9230769 45 36.9230769 38.0769231 38.0769231 38.0769231"></polygon>
                        <polygon id="Fill-8-Copy-3" points="16.1538462 17.3076923 15 17.3076923 15 10.3846154 13.8461538 10.3846154 13.8461538 17.3076923 12.6923077 17.3076923 12.6923077 38.0769231 13.8461538 38.0769231 13.8461538 45 15 45 15 38.0769231 16.1538462 38.0769231"></polygon>
                        <polygon id="Fill-8-Copy-2" opacity="0.3" points="28.8461538 6.92307692 26.5384615 6.92307692 26.5384615 -1.63971401e-14 24.2307692 -1.63971401e-14 24.2307692 6.92307692 21.9230769 6.92307692 21.9230769 27.6923077 24.2307692 27.6923077 24.2307692 34.6153846 26.5384615 34.6153846 26.5384615 27.6923077 28.8461538 27.6923077"></polygon>
                        <polygon id="Fill-8-Copy-4" points="6.92307692 6.92307692 4.61538462 6.92307692 4.61538462 -1.63971401e-14 2.30769231 -1.63971401e-14 2.30769231 6.92307692 0 6.92307692 0 21.9230769 2.30769231 21.9230769 2.30769231 28.8461538 4.61538462 28.8461538 4.61538462 21.9230769 6.92307692 21.9230769"></polygon>
                    </g>
                </g>
            </g>
        </g>
    </g>
</svg>