<?xml version="1.0" encoding="utf-8"?>
<!-- Generator: Adobe Illustrator 25.4.1, SVG Export Plug-In . SVG Version: 6.00 Build 0)  -->
<svg version="1.1" id="Layer_1" xmlns="http://www.w3.org/2000/svg" xmlns:xlink="http://www.w3.org/1999/xlink" x="0px" y="0px"
	 viewBox="0 0 740.6 678.5" style="enable-background:new 0 0 740.6 678.5;" xml:space="preserve">
<style type="text/css">
	.st0{opacity:0.7;}
	.st1{opacity:0.91;}
	.st2{fill:url(#SVGID_1_);}
	.st3{opacity:0.8;fill:url(#SVGID_00000144308898955934596070000005865833885638547356_);enable-background:new    ;}
	.st4{fill:url(#SVGID_00000032629938465881665160000011509458416708743556_);}
	.st5{fill:url(#SVGID_00000066486516842479481140000005349888715146694819_);}
	.st6{opacity:0.8;fill:url(#SVGID_00000179624057911085844730000003226951495101937552_);enable-background:new    ;}
	.st7{fill:url(#SVGID_00000053535161603903866030000002204954929648722822_);}
	.st8{fill:none;}
	.st9{fill:url(#SVGID_00000168118502780332347140000006523461870123814539_);}
	.st10{opacity:0.8;fill:url(#SVGID_00000124846533795777257890000010931474779587957407_);enable-background:new    ;}
	.st11{fill:url(#SVGID_00000117651640632292649330000014997191668485488823_);}
	.st12{fill:url(#SVGID_00000005246764083874368080000004152507823986041740_);}
	.st13{opacity:0.8;fill:url(#SVGID_00000104674731820109962530000008718025095686582205_);enable-background:new    ;}
	.st14{fill:url(#SVGID_00000065765821083582960970000017397216074903835043_);}
	.st15{opacity:0.49;}
	.st16{enable-background:new    ;}
	.st17{fill:url(#SVGID_00000093871440599036560840000006914040102963701950_);}
	.st18{fill:url(#SVGID_00000161630242059248650980000006500359356672413827_);}
	.st19{fill:url(#SVGID_00000067917068823026077340000013660995129267932566_);}
	.st20{fill:url(#SVGID_00000042012280761148259870000010571967184185709247_);}
</style>
<g class="st0">
	<g class="st1">
		<g>
			
				<linearGradient id="SVGID_1_" gradientUnits="userSpaceOnUse" x1="433.8804" y1="282.8319" x2="570.3492" y2="228.0857" gradientTransform="matrix(1 0 0 1 0 -39.4897)">
				<stop  offset="0" style="stop-color:#3BB1FF"/>
				<stop  offset="1.080035e-02" style="stop-color:#3DB2FF;stop-opacity:0.9909"/>
				<stop  offset="0.377" style="stop-color:#87D3FF;stop-opacity:0.6819"/>
				<stop  offset="0.6392" style="stop-color:#B5E8FF;stop-opacity:0.4606"/>
				<stop  offset="0.7703" style="stop-color:#C7F0FF;stop-opacity:0.35"/>
			</linearGradient>
			<polygon class="st2" points="515,179.8 461.5,210.6 515,241.8 569,211 			"/>
			
				<linearGradient id="SVGID_00000043458924345955241150000015607138723178022823_" gradientUnits="userSpaceOnUse" x1="452.1898" y1="317.5591" x2="519.1793" y2="278.8827" gradientTransform="matrix(1 0 0 1 0 -39.4897)">
				<stop  offset="0" style="stop-color:#00A3FF"/>
				<stop  offset="0.8445" style="stop-color:#B4E7FF;stop-opacity:0.9"/>
			</linearGradient>
			
				<polygon style="opacity:0.8;fill:url(#SVGID_00000043458924345955241150000015607138723178022823_);enable-background:new    ;" points="
				515,303.9 461.5,272.9 461.5,210.6 515,241.8 			"/>
		</g>
		
			<linearGradient id="SVGID_00000067231128720235850060000000820032211731308420_" gradientUnits="userSpaceOnUse" x1="468.0679" y1="303.1628" x2="561.3762" y2="295.3088" gradientTransform="matrix(1 0 0 1 0 -39.4897)">
			<stop  offset="0" style="stop-color:#0082FF"/>
			<stop  offset="0.9511" style="stop-color:#39C5FF;stop-opacity:0.25"/>
		</linearGradient>
		<polygon style="fill:url(#SVGID_00000067231128720235850060000000820032211731308420_);" points="515,303.9 569,272.9 569,211 
			515,241.8 		"/>
	</g>
	<g>
		<g>
			
				<linearGradient id="SVGID_00000029045022604876696750000000744097820654570687_" gradientUnits="userSpaceOnUse" x1="474.7253" y1="281.9965" x2="542.8369" y2="254.6726" gradientTransform="matrix(1 0 0 1 0 -39.4897)">
				<stop  offset="0.2181" style="stop-color:#26C0FF"/>
				<stop  offset="1" style="stop-color:#C7F0FF;stop-opacity:0.35"/>
			</linearGradient>
			<polygon style="fill:url(#SVGID_00000029045022604876696750000000744097820654570687_);" points="515,210.9 488.6,226.5 
				515,241.8 542.2,226.5 			"/>
			
				<linearGradient id="SVGID_00000085960948883049043590000014145671773169338782_" gradientUnits="userSpaceOnUse" x1="482.7758" y1="293.1654" x2="518.1794" y2="285.3946" gradientTransform="matrix(1 0 0 1 0 -39.4897)">
				<stop  offset="0.2453" style="stop-color:#00A0FF"/>
				<stop  offset="1" style="stop-color:#18D4FF;stop-opacity:0.3229"/>
			</linearGradient>
			
				<polygon style="opacity:0.8;fill:url(#SVGID_00000085960948883049043590000014145671773169338782_);enable-background:new    ;" points="
				515,272.5 488.6,257.1 488.6,226.5 515,241.8 			"/>
		</g>
		
			<linearGradient id="SVGID_00000064353518464936721470000004654187261776979875_" gradientUnits="userSpaceOnUse" x1="484.3673" y1="333.1724" x2="540.1345" y2="277.4052" gradientTransform="matrix(1 0 0 1 0 -39.4897)">
			<stop  offset="0.2299" style="stop-color:#007CFF"/>
			<stop  offset="1" style="stop-color:#39C5FF;stop-opacity:0.25"/>
		</linearGradient>
		<polygon style="fill:url(#SVGID_00000064353518464936721470000004654187261776979875_);" points="515,272.5 542.2,257.1 
			542.2,226.5 515,241.8 		"/>
	</g>
</g>
<path class="st8" d="M542.2,281.2"/>
<g>
	<g class="st1">
		<g>
			
				<linearGradient id="SVGID_00000067942785170585482510000000223491077301883839_" gradientUnits="userSpaceOnUse" x1="135.759" y1="437.9178" x2="297.2595" y2="373.1298" gradientTransform="matrix(1 0 0 1 0 -39.4897)">
				<stop  offset="5.939980e-02" style="stop-color:#3BB1FF"/>
				<stop  offset="1" style="stop-color:#C7F0FF;stop-opacity:0.35"/>
			</linearGradient>
			<polygon style="fill:url(#SVGID_00000067942785170585482510000000223491077301883839_);" points="231.8,323.2 168.5,359.7 
				231.8,396.6 295.7,360.2 			"/>
			
				<linearGradient id="SVGID_00000019667870373385772770000009486797817777621890_" gradientUnits="userSpaceOnUse" x1="157.4577" y1="479.0881" x2="236.7346" y2="433.3176" gradientTransform="matrix(1 0 0 1 0 -39.4897)">
				<stop  offset="0" style="stop-color:#00A3FF"/>
				<stop  offset="0.8445" style="stop-color:#B4E7FF;stop-opacity:0.9"/>
			</linearGradient>
			
				<polygon style="opacity:0.8;fill:url(#SVGID_00000019667870373385772770000009486797817777621890_);enable-background:new    ;" points="
				231.8,470.2 168.5,433.5 168.5,359.7 231.8,396.6 			"/>
		</g>
		
			<linearGradient id="SVGID_00000097497476407631052570000011412151137061218694_" gradientUnits="userSpaceOnUse" x1="176.2444" y1="462.0553" x2="286.6677" y2="452.7607" gradientTransform="matrix(1 0 0 1 0 -39.4897)">
			<stop  offset="0.1117" style="stop-color:#0082FF"/>
			<stop  offset="1" style="stop-color:#39C5FF;stop-opacity:0.25"/>
		</linearGradient>
		<polygon style="fill:url(#SVGID_00000097497476407631052570000011412151137061218694_);" points="231.8,470.2 295.7,433.5 
			295.7,360.2 231.8,396.6 		"/>
	</g>
	<g>
		<g>
			
				<linearGradient id="SVGID_00000115506097250527924130000006044996813414258859_" gradientUnits="userSpaceOnUse" x1="184.1123" y1="436.9702" x2="264.7172" y2="404.6347" gradientTransform="matrix(1 0 0 1 0 -39.4897)">
				<stop  offset="0.2181" style="stop-color:#26C0FF"/>
				<stop  offset="1" style="stop-color:#C7F0FF;stop-opacity:0.35"/>
			</linearGradient>
			<polygon style="fill:url(#SVGID_00000115506097250527924130000006044996813414258859_);" points="231.8,360.1 200.6,378.6 
				231.8,396.6 263.9,378.6 			"/>
			
				<linearGradient id="SVGID_00000067923354655727283490000016603423377069710742_" gradientUnits="userSpaceOnUse" x1="193.6653" y1="450.286" x2="235.563" y2="441.0897" gradientTransform="matrix(1 0 0 1 0 -39.4897)">
				<stop  offset="0.2453" style="stop-color:#00A0FF"/>
				<stop  offset="1" style="stop-color:#18D4FF;stop-opacity:0.3229"/>
			</linearGradient>
			
				<polygon style="opacity:0.8;fill:url(#SVGID_00000067923354655727283490000016603423377069710742_);enable-background:new    ;" points="
				231.8,433.1 200.6,414.7 200.6,378.6 231.8,396.6 			"/>
		</g>
		
			<linearGradient id="SVGID_00000107586437587276596670000005245948388292972205_" gradientUnits="userSpaceOnUse" x1="195.4827" y1="497.507" x2="261.479" y2="431.5107" gradientTransform="matrix(1 0 0 1 0 -39.4897)">
			<stop  offset="0.2299" style="stop-color:#007CFF"/>
			<stop  offset="1" style="stop-color:#39C5FF;stop-opacity:0.25"/>
		</linearGradient>
		<polygon style="fill:url(#SVGID_00000107586437587276596670000005245948388292972205_);" points="231.8,433.1 263.9,414.7 
			263.9,378.6 231.8,396.6 		"/>
	</g>
</g>
<g>
	<g class="st15">
		<g>
			<g class="st16">
				<g>
					
						<linearGradient id="SVGID_00000001636486925276642170000006362983250590957994_" gradientUnits="userSpaceOnUse" x1="2110.4578" y1="145.9453" x2="2205.5593" y2="363.5066" gradientTransform="matrix(1 0 0 -1 -1833.0088 513.8898)">
						<stop  offset="0" style="stop-color:#00FA96"/>
						<stop  offset="1" style="stop-color:#00FA96;stop-opacity:0"/>
					</linearGradient>
					<path style="fill:url(#SVGID_00000001636486925276642170000006362983250590957994_);" d="M330.9,165.9l-68.7,75.2l0.3,52.7
						c0,24.4,6.7,43,19.9,55.6c13.2,12.5,29.7,15.9,49.4,10.1c19.6-16.7,35.9-39,49.1-66.8s19.6-53.9,19.6-78.3l-0.3-52.7
						L330.9,165.9"/>
				</g>
			</g>
		</g>
	</g>
	<g>
		<g>
			<g class="st16">
				<g>
					
						<linearGradient id="SVGID_00000149352264451982606090000010112193561389649822_" gradientUnits="userSpaceOnUse" x1="2134.0688" y1="129.7009" x2="2229.1707" y2="347.2623" gradientTransform="matrix(1 0 0 -1 -1833.0088 513.8898)">
						<stop  offset="0" style="stop-color:#00FA96"/>
						<stop  offset="1" style="stop-color:#00FA96;stop-opacity:0"/>
					</linearGradient>
					<path style="fill:url(#SVGID_00000149352264451982606090000010112193561389649822_);" d="M354.6,182l-68.7,75.2l0.3,52.7
						c0,24.4,6.7,43,19.9,55.6c13.2,12.5,29.7,15.9,49.4,10.1c19.6-16.7,35.9-39,49.1-66.8c13-27.9,19.5-54,19.5-78.4l-0.3-52.7
						L354.6,182"/>
				</g>
			</g>
		</g>
	</g>
	<g class="st16">
		<g>
			<g class="st16">
				<g>
					
						<linearGradient id="SVGID_00000027605277006544904870000012930833024659078825_" gradientUnits="userSpaceOnUse" x1="2077.4846" y1="61.5074" x2="2268.0137" y2="274.509" gradientTransform="matrix(1 0 0 -1 -1833.0088 513.8898)">
						<stop  offset="0" style="stop-color:#0083FF"/>
						<stop  offset="0.3592" style="stop-color:#0588FF;stop-opacity:0.9842"/>
						<stop  offset="1" style="stop-color:#90EAFF;stop-opacity:0.4"/>
					</linearGradient>
					<path style="fill:url(#SVGID_00000027605277006544904870000012930833024659078825_);" d="M384,198.8L315.3,274l0.3,52.7
						c0,24.4,6.7,43,19.9,55.6c13.2,12.5,29.7,15.9,49.4,10.1c19.6-16.7,35.9-39,49.1-66.8s19.6-53.9,19.6-78.3l-0.3-52.7L384,198.8
						"/>
				</g>
			</g>
		</g>
	</g>
	<g class="st16">
		<g>
			<g class="st16">
				<g>
					
						<linearGradient id="SVGID_00000006683697386113736540000017251412782220313529_" gradientUnits="userSpaceOnUse" x1="2142.1038" y1="134.5705" x2="2244.4583" y2="248.9977" gradientTransform="matrix(1 0 0 -1 -1833.0088 513.8898)">
						<stop  offset="0" style="stop-color:#90FFFF;stop-opacity:0.4"/>
						<stop  offset="1" style="stop-color:#FFFFFF"/>
					</linearGradient>
					<path style="fill:url(#SVGID_00000006683697386113736540000017251412782220313529_);" d="M384.1,243.1l-36.9,40.4l0.1,28.3
						c0,13.2,3.6,23.1,10.7,29.8c7.1,6.7,15.9,8.5,26.5,5.4c10.6-8.9,19.2-20.9,26.4-35.9c7.1-15,10.6-28.9,10.6-42.1l-0.1-28.3
						L384.1,243.1"/>
				</g>
			</g>
		</g>
	</g>
</g>
</svg>
